<svg t="1733877005258" class="icon" viewBox="0 0 1024 1024" version="1.1" xmlns="http://www.w3.org/2000/svg" p-id="27299" width="200" height="200"><path d="M556.83982222 301.19253333h-84.35484444c-11.65084445 0-21.11715555-9.44355555-21.11715556-21.0944 0-11.65084445 9.45493333-21.0944 21.11715556-21.0944h84.35484444c11.65084445 0 21.11715555 9.44355555 21.11715556 21.0944 0 11.65084445-9.46631111 21.0944-21.11715556 21.0944z" fill="#F6BB42" p-id="27300"></path><path d="M810.01813333 723.10328889c-279.64302222 0-506.32248889-226.67946667-506.32248888-506.31111111 0-62.83946667 11.4688-123.02791111 32.4039111-178.56284445C144.5888 110.42133333 8.35128889 295.37848889 8.35128889 512.15928889c0 279.62026667 226.67946667 506.31111111 506.32248889 506.31111111 216.75804445 0 401.7152-136.23751111 473.89582222-327.75964445-55.52355555 20.93511111-115.712 32.39253333-178.55146667 32.39253334z" fill="#FFCE54" p-id="27301"></path><path d="M556.83982222 976.27022222c-279.60888889 0-506.28835555-226.67946667-506.28835555-506.31111111 0-129.03537778 48.28728889-246.79537778 127.72693333-336.19057778-104.23182222 92.72888889-169.92711111 227.87413333-169.92711111 378.39075556 0 279.62026667 226.67946667 506.31111111 506.32248889 506.31111111 150.48248889 0 285.63911111-65.69528889 378.368-169.94986667-89.3952 79.47377778-207.16657778 127.74968889-336.20195556 127.74968889z" fill="#F6BB42" p-id="27302"></path><path d="M767.81795555 280.08675555c0 11.65084445-9.45493333 21.0944-21.10577777 21.0944-11.62808889 0-21.08302222-9.44355555-21.08302223-21.0944 0-11.65084445 9.46631111-21.0944 21.08302223-21.0944 11.65084445 0 21.10577778 9.44355555 21.10577777 21.0944z" fill="#4A89DC" p-id="27303"></path><path d="M662.34595555 491.05351111c0 11.63946667-9.45493333 21.0944-21.11715555 21.0944-11.65084445 0-21.08302222-9.46631111-21.08302222-21.0944 0-11.65084445 9.43217778-21.0944 21.08302222-21.0944 11.66222222 0 21.11715555 9.44355555 21.11715555 21.0944z" fill="#48CFAD" p-id="27304"></path><path d="M1020.96213333 237.55662222c0 11.65084445-9.45493333 21.0944-21.08302222 21.0944-11.65084445 0-21.11715555-9.44355555-21.11715556-21.0944 0-11.65084445 9.45493333-21.0944 21.11715556-21.0944 11.62808889 0 21.08302222 9.43217778 21.08302222 21.0944z" fill="#ED5564" p-id="27305"></path><path d="M641.2288 26.58986667c0 11.65084445-9.43217778 21.0944-21.08302222 21.0944-11.65084445 0-21.11715555-9.44355555-21.11715556-21.0944 0-11.63946667 9.45493333-21.08302222 21.11715556-21.08302222 11.66222222 0 21.08302222 9.44355555 21.08302222 21.08302222z" fill="#AC92EB" p-id="27306"></path><path d="M514.67377778 195.69777778c-11.65084445 0-21.11715555 9.45493333-21.11715556 21.0944V343.38133333c0 11.63946667 9.45493333 21.08302222 21.11715556 21.08302222 11.62808889 0 21.08302222-9.44355555 21.08302222-21.08302222V216.79217778c0-11.63946667-9.45493333-21.0944-21.08302222-21.0944z" fill="#FFCE54" p-id="27307"></path><path d="M873.30133333 427.75893333c-11.65084445 0-21.08302222 9.44355555-21.08302222 21.0944v126.5664c0 11.65084445 9.43217778 21.0944 21.08302222 21.0944 11.65084445 0 21.08302222-9.44355555 21.08302222-21.0944V448.86471111c-0.01137778-11.66222222-9.43217778-21.10577778-21.08302222-21.10577778z" fill="#F6BB42" p-id="27308"></path><path d="M915.49013333 533.24231111h-84.38897778c-11.65084445 0-21.08302222-9.44355555-21.08302222-21.08302222 0-11.65084445 9.43217778-21.0944 21.08302222-21.0944h84.38897778c11.65084445 0 21.08302222 9.44355555 21.08302222 21.0944 0 11.62808889-9.4208 21.08302222-21.08302222 21.08302222z" fill="#FFCE54" p-id="27309"></path></svg>