<svg t="1734401047864" class="icon" viewBox="0 0 1024 1024" version="1.1" xmlns="http://www.w3.org/2000/svg" p-id="19876" width="200" height="200"><path d="M511.33 129.74c106.93 0 209.1 45.21 281.25 122.78h-93a35 35 0 0 0 0 70h170.33a35 35 0 0 0 35-35V108.78a35 35 0 1 0-70 0v86.74A453.6 453.6 0 0 0 60 467.53a35 35 0 0 0 69.65 7C149.4 278 313.48 129.74 511.33 129.74zM931.33 518.91a35 35 0 0 0-38.18 31.5C874.23 748 710.08 896.94 511.33 896.94a384.89 384.89 0 0 1-263-104.43H342a35 35 0 0 0 0-70H171.66a35 35 0 0 0-35 35v178.74a35 35 0 0 0 70 0v-87a453.58 453.58 0 0 0 756.18-292.17 35 35 0 0 0-31.51-38.17z" fill="#CCCCCC" p-id="19877"></path></svg>