<svg t="1734424782954" class="icon" viewBox="0 0 1025 1024" version="1.1" xmlns="http://www.w3.org/2000/svg" p-id="39297" width="200" height="200"><path d="M921.519104 250.3168L845.947904 443.2896l-12.5952 32.1536a17.2032 17.2032 0 0 1-22.3744 9.728l-32.1536-12.5952-193.1776-75.3664a17.2032 17.2032 0 0 1-9.728-22.3744l12.5952-32.1536a17.2032 17.2032 0 0 1 22.3744-9.7792l159.9488 62.6688a309.8624 309.8624 0 1 0 5.7344 220.16h72.448a380.3648 380.3648 0 1 1-32.6144-286.4128l40.96-104.0896a17.2032 17.2032 0 0 1 22.3744-9.7792l32.2048 12.5952a17.408 17.408 0 0 1 9.728 22.4256" fill="#BCBDBF" p-id="39298"></path></svg>